<?xml version="1.0" standalone="no"?>
<!DOCTYPE svg PUBLIC "-//W3C//DTD SVG 20010904//EN"
 "http://www.w3.org/TR/2001/REC-SVG-20010904/DTD/svg10.dtd">
<svg version="1.0" xmlns="http://www.w3.org/2000/svg"
 width="48.000000pt" height="48.000000pt" viewBox="0 0 48.000000 48.000000"
 preserveAspectRatio="xMidYMid meet">

<g transform="translate(0.000000,48.000000) scale(0.100000,-0.100000)"
fill="#000000" stroke="none">
<path d="M0 390 c0 -33 4 -60 10 -60 6 0 10 -57 10 -150 l0 -150 220 0 220 0
0 150 c0 93 4 150 10 150 6 0 10 27 10 60 l0 60 -240 0 -240 0 0 -60z m460 0
l0 -40 -220 0 -220 0 0 40 0 40 220 0 220 0 0 -40z m-30 -195 l0 -145 -190 0
-190 0 0 145 0 145 190 0 190 0 0 -145z"/>
<path d="M190 263 c0 -9 17 -13 50 -13 33 0 50 4 50 13 0 8 -17 12 -50 12 -33
0 -50 -4 -50 -12z"/>
</g>
</svg>
